<svg width="25" height="20" viewBox="0 0 25 20" fill="none" xmlns="http://www.w3.org/2000/svg">
<path d="M12.5805 0H12.7195C14.004 0.00533855 20.5122 0.0587244 22.267 0.596139C22.7975 0.760154 23.2809 1.07985 23.6689 1.52328C24.0569 1.96671 24.3359 2.51834 24.4781 3.12305C24.6359 3.79927 24.7469 4.69437 24.8219 5.61794L24.8375 5.80301L24.8719 6.26568L24.8844 6.45075C24.9859 8.07723 24.9984 9.6005 25 9.93327V10.0667C24.9984 10.412 24.9844 12.0384 24.8719 13.7325L24.8594 13.9194L24.8453 14.1045C24.7672 15.1223 24.6515 16.1331 24.4781 16.8769C24.3364 17.4819 24.0575 18.0338 23.6694 18.4773C23.2814 18.9208 22.7977 19.2403 22.267 19.4039C20.4544 19.9591 13.5649 19.9982 12.6102 20H12.3883C11.9054 20 9.90843 19.9893 7.81455 19.9075L7.54891 19.8968L7.41296 19.8897L7.14576 19.8772L6.87856 19.8648C5.14407 19.7776 3.49241 19.637 2.73142 19.4021C2.2009 19.2387 1.7174 18.9194 1.32934 18.4763C0.941283 18.0331 0.662302 17.4816 0.520345 16.8769C0.346897 16.1349 0.231264 15.1223 0.153135 14.1045L0.140634 13.9176L0.128133 13.7325C0.0510151 12.5267 0.00828156 11.3184 0 10.1094L0 9.89056C0.0031252 9.50796 0.015626 8.18578 0.100006 6.72658L0.110944 6.54329L0.115632 6.45075L0.128133 6.26568L0.16251 5.80301L0.178136 5.61794C0.253141 4.69437 0.364085 3.79749 0.521908 3.12305C0.663625 2.5181 0.9425 1.96621 1.33057 1.5227C1.71865 1.0792 2.20228 0.759663 2.73298 0.596139C3.49397 0.364801 5.14563 0.22244 6.88012 0.133464L7.14576 0.121007L7.41453 0.11033L7.54891 0.104992L7.81611 0.0925352C9.30325 0.0380367 10.791 0.00778159 12.2789 0.0017796H12.5805V0ZM10.0006 5.71225V14.286L16.4963 10.0009L10.0006 5.71225Z" fill="white"/>
</svg>
