<svg width="24" height="20" viewBox="0 0 24 20" fill="none" xmlns="http://www.w3.org/2000/svg">
<path d="M21.0685 0H2.93155C1.31516 0 0 1.61437 0 3.59848V16.4015C0 18.3856 1.31516 20 2.93155 20H21.0685C22.6848 20 24 18.3856 24 16.4015V3.59887C24.0003 1.61437 22.6852 0 21.0685 0ZM19.636 2.3476L12 8.38641L4.36401 2.3476H19.636ZM21.0685 17.6528H2.93155C2.36959 17.6528 1.9125 17.0913 1.9125 16.4019V3.66539L11.41 11.1621C11.4227 11.1718 11.4364 11.1785 11.4495 11.1875C11.4632 11.1969 11.4772 11.2059 11.4913 11.2145C11.5649 11.2611 11.6408 11.2986 11.7182 11.3233C11.7262 11.326 11.7342 11.3272 11.7421 11.3295C11.8272 11.3542 11.9133 11.3694 11.9994 11.3694C11.9997 11.3694 12 11.3694 12 11.3694C12.0006 11.3694 12.001 11.3694 12.0013 11.3694C12.0873 11.3694 12.1734 11.3546 12.2585 11.3295C12.2665 11.3272 12.2744 11.326 12.2824 11.3233C12.3599 11.2986 12.4354 11.2611 12.5094 11.2145C12.5234 11.2059 12.5374 11.1969 12.5511 11.1875C12.5642 11.1785 12.5779 11.1718 12.5906 11.1621L22.0881 3.66539V16.4015C22.0878 17.0913 21.6304 17.6528 21.0685 17.6528Z" fill="white"/>
</svg>
